<?xml version="1.0" encoding="UTF-8" standalone="no"?>
<!-- Created with Inkscape (http://www.inkscape.org/) -->

<svg
   width="67.709747mm"
   height="33.904877mm"
   viewBox="0 0 67.709747 33.904877"
   version="1.1"
   id="svg1"
   inkscape:export-filename="fac.svg"
   inkscape:export-xdpi="96"
   inkscape:export-ydpi="96"
   sodipodi:docname="fac.svg"
   inkscape:version="1.3 (0e150ed6c4, 2023-07-21)"
   xmlns:inkscape="http://www.inkscape.org/namespaces/inkscape"
   xmlns:sodipodi="http://sodipodi.sourceforge.net/DTD/sodipodi-0.dtd"
   xmlns="http://www.w3.org/2000/svg"
   xmlns:svg="http://www.w3.org/2000/svg">
  <sodipodi:namedview
     id="namedview1"
     pagecolor="#ffffff"
     bordercolor="#111111"
     borderopacity="1"
     inkscape:showpageshadow="0"
     inkscape:pageopacity="0"
     inkscape:pagecheckerboard="1"
     inkscape:deskcolor="#d1d1d1"
     inkscape:document-units="mm"
     showgrid="false"
     inkscape:zoom="2.5379932"
     inkscape:cx="54.570675"
     inkscape:cy="102.24614"
     inkscape:window-width="1920"
     inkscape:window-height="1057"
     inkscape:window-x="-8"
     inkscape:window-y="-8"
     inkscape:window-maximized="1"
     inkscape:current-layer="layer1" />
  <defs
     id="defs1" />
  <g
     inkscape:label="Layer 1"
     inkscape:groupmode="layer"
     id="layer1"
     transform="translate(-22.026656,-47.552786)">
    <rect
       style="fill:#523636;stroke:#213223;stroke-width:0.1;stroke-linejoin:round"
       id="rect1"
       width="67.609756"
       height="33.804878"
       x="22.076654"
       y="47.602787"
       inkscape:export-filename="fac.svg"
       inkscape:export-xdpi="96"
       inkscape:export-ydpi="96" />
    <g
       id="text1"
       style="font-size:10.5833px;line-height:1.25;letter-spacing:0px;stroke-width:0.264583"
       aria-label="FACTORY&#10;xd">
      <path
         style="stroke:#000000"
         d="m 33.322138,60.368931 h -0.952496 v -7.556476 h 4.222736 v 0.836081 h -3.27024 v 2.677574 h 3.069157 v 0.836081 h -3.069157 z m 9.069874,0 -0.910164,-2.338909 h -2.995074 l -0.89958,2.338909 h -0.96308 l 2.95274,-7.588226 h 0.857247 l 2.942158,7.588226 z m -1.195913,-3.185573 -0.846664,-2.285993 q -0.03175,-0.08467 -0.105833,-0.306916 -0.07408,-0.222249 -0.148166,-0.455082 -0.0635,-0.243416 -0.105833,-0.370415 -0.08467,0.328082 -0.179916,0.645581 -0.08467,0.306916 -0.148166,0.486832 l -0.857248,2.285993 z m 6.244142,-3.640655 q -1.21708,0 -1.915578,0.814914 -0.698497,0.814914 -0.698497,2.233076 0,1.407579 0.645581,2.233076 0.656164,0.814914 1.95791,0.814914 0.486832,0 0.931331,-0.08467 0.444498,-0.08467 0.878414,-0.211666 v 0.825497 q -0.423332,0.15875 -0.878414,0.232833 -0.444499,0.07408 -1.068914,0.07408 -1.153579,0 -1.92616,-0.476249 -0.772581,-0.476248 -1.164163,-1.354662 -0.380999,-0.878414 -0.380999,-2.063743 0,-1.142997 0.412749,-2.010827 0.423332,-0.878414 1.238246,-1.365246 0.814914,-0.497415 1.979077,-0.497415 1.195913,0 2.08491,0.444498 l -0.380999,0.804331 q -0.349249,-0.158749 -0.783164,-0.285749 -0.423332,-0.126999 -0.93133,-0.126999 z m 5.84198,6.826228 h -0.952497 v -6.720395 h -2.360076 v -0.836081 h 5.662066 v 0.836081 h -2.349493 z m 9.874212,-3.788821 q 0,1.174746 -0.402166,2.05316 -0.391582,0.86783 -1.174746,1.354662 -0.772581,0.486832 -1.904994,0.486832 -1.174746,0 -1.95791,-0.486832 -0.772581,-0.486832 -1.15358,-1.365246 -0.380999,-0.878413 -0.380999,-2.05316 0,-1.153579 0.380999,-2.02141 0.380999,-0.878414 1.15358,-1.365246 0.783164,-0.486831 1.968494,-0.486831 1.132413,0 1.904993,0.486831 0.772581,0.476249 1.164163,1.354663 0.402166,0.86783 0.402166,2.042577 z m -5.968981,0 q 0,1.428745 0.603248,2.254242 0.603248,0.814914 1.883827,0.814914 1.280579,0 1.873244,-0.814914 0.603248,-0.825497 0.603248,-2.254242 0,-1.428746 -0.592664,-2.233077 -0.592665,-0.814914 -1.873244,-0.814914 -1.291163,0 -1.894411,0.814914 -0.603248,0.804331 -0.603248,2.233077 z m 9.726053,-3.767655 q 1.407579,0 2.074327,0.539748 0.677331,0.529165 0.677331,1.608662 0,0.603248 -0.222249,1.005413 -0.222249,0.402166 -0.571498,0.645581 -0.338666,0.243416 -0.719665,0.370416 l 2.074327,3.386656 h -1.111246 l -1.830911,-3.122074 h -1.502829 v 3.122074 h -0.952497 v -7.556476 z m -0.05292,0.825497 h -1.079497 v 2.804575 h 1.132413 q 0.920747,0 1.344079,-0.359833 0.423332,-0.370415 0.423332,-1.079496 0,-0.740831 -0.444498,-1.047747 -0.444499,-0.317499 -1.375829,-0.317499 z m 6.51931,2.889241 1.968493,-3.714738 h 1.02658 l -2.518825,4.624902 v 2.931574 H 72.90365 V 57.47969 l -2.518825,-4.667235 h 1.037163 z"
         id="path1" />
      <path
         style="stroke:#000000"
         d="m 33.586721,70.698231 -1.95791,-2.772824 h 1.05833 l 1.460495,2.137826 1.449912,-2.137826 h 1.047747 l -1.957911,2.772824 2.063744,2.899824 h -1.05833 l -1.545162,-2.264826 -1.566328,2.264826 h -1.047747 z m 6.053635,3.005657 q -1.05833,0 -1.693328,-0.730247 -0.634998,-0.740831 -0.634998,-2.201327 0,-1.460495 0.634998,-2.201326 0.645582,-0.751414 1.703912,-0.751414 0.656164,0 1.068913,0.243416 0.423332,0.243416 0.687914,0.592664 h 0.0635 q -0.02117,-0.137582 -0.04233,-0.402165 -0.02117,-0.275166 -0.02117,-0.433915 v -2.264826 h 0.931331 v 8.043307 h -0.751414 l -0.137583,-0.761997 h -0.04233 q -0.253999,0.359832 -0.677331,0.613831 -0.423332,0.253999 -1.09008,0.253999 z m 0.148167,-0.772581 q 0.89958,0 1.259412,-0.486831 0.370416,-0.497415 0.370416,-1.492246 v -0.169332 q 0,-1.05833 -0.349249,-1.619245 -0.349249,-0.571498 -1.291163,-0.571498 -0.751414,0 -1.132413,0.603248 -0.370415,0.592664 -0.370415,1.598078 0,1.015997 0.370415,1.576912 0.380999,0.560914 1.142997,0.560914 z"
         id="path2" />
    </g>
  </g>
</svg>
